# xmcd
#
# Track frame offsets: 
#        150
#        25028
#        63820
#        89058
#        121918
#        136537
#        157167
#        174973
#        244519
#        255183
#        274430
#        304901
#
# Disc length: 4702 seconds
#
# Revision: 0
# Processed by: cddbd v1.5.2PL0 Copyright (c) Steve Scherf et al.
# Submitted via: ExactAudioCopy v0.95b3
#
DISCID=96125c0c
DTITLE=The Rolling Stones  - Live Tour, Inglewood CA - Disc 2
DYEAR=1900
DGENRE=
TTITLE0=Doo Doo Doo Heartbreaker
TTITLE1=Fingerprint File
TTITLE2=Angie
TTITLE3=Wild Horses
TTITLE4=That's Life
TTITLE5=Outta Space
TTITLE6=Brown Sugar
TTITLE7=Midnight Rambler
TTITLE8=Rip This Joint
TTITLE9=Street Fighting Man
TTITLE10=Jumpin' Jack Flash
TTITLE11=Sympathy For The Devil
EXTD=
EXTT0=
EXTT1=
EXTT2=
EXTT3=
EXTT4=
EXTT5=
EXTT6=
EXTT7=
EXTT8=
EXTT9=
EXTT10=
EXTT11=
PLAYORDER=
